<svg xmlns:xlink="http://www.w3.org/1999/xlink" xmlns="http://www.w3.org/2000/svg" viewBox="0 0 1220 1094" width="1220"  height="1094"><defs><style>.cls-1{fill:#732c0d;}.cls-2{fill:#ff7200;}.cls-3{fill:#ff6700;}.cls-4{fill:#fff;}</style></defs><title>Ресурс 1</title><g id="Слой_2" data-name="Слой 2"><g id="Слой_2-2" data-name="Слой 2"><polygon class="cls-1" points="367 0 0 971 234 862.79 367 895.78 482 1034 610.5 1094 738 1034 853 895.78 986 862.79 1220 971 853 0 685 327 535 327 367 0"/><polygon class="cls-2" points="1021.33 598.1 822.81 847.63 704.16 990.25 610 923.8 515.79 990.18 397.19 847.63 198.67 598.1 374.53 132.82 502.03 381 717.97 381 845.47 132.82 1021.33 598.1"/><polygon class="cls-3" points="455.94 381 324.56 381 380.24 233.67 455.94 381"/><polygon class="cls-3" points="895.44 381 764.06 381 839.75 233.67 895.44 381"/><polygon class="cls-4" points="397.19 847.63 228.57 805.81 97.2 866.55 198.67 598.1 397.19 847.63"/><polygon class="cls-4" points="1122.79 866.55 991.43 805.81 822.81 847.63 1021.33 598.1 1122.79 866.55"/><polygon class="cls-1" points="704.16 990.25 610.41 1034.36 515.79 990.18 610 923.8 704.16 990.25"/><polygon class="cls-3" points="519 422 610 653.28 701 422 519 422"/><polygon class="cls-1" points="387 598 454 598 519 671.18 519 724.76 419 653.18 387 598"/><polygon class="cls-1" points="766 598 701 671.18 701 724.76 801 653.17 833 598 766 598"/></g></g></svg>